{
	"asset":{
		"generator":"Khronos glTF Blender I/O v4.3.47",
		"version":"2.0"
	},
	"extensionsUsed":[
		"KHR_materials_specular"
	],
	"scene":0,
	"scenes":[
		{
			"name":"Scene",
			"nodes":[
				0
			]
		}
	],
	"nodes":[
		{
			"mesh":0,
			"name":"stirnradgetriebe_komplett",
			"rotation":[
				0.7071068286895752,
				0,
				0,
				0.7071068286895752
			]
		}
	],
	"materials":[
		{
			"doubleSided":true,
			"extensions":{
				"KHR_materials_specular":{
					"specularFactor":0
				}
			},
			"name":"DEFAULT_MTL",
			"pbrMetallicRoughness":{
				"baseColorFactor":[
					0.800000011920929,
					0.800000011920929,
					0.800000011920929,
					1
				],
				"metallicFactor":0
			}
		},
		{
			"doubleSided":true,
			"extensions":{
				"KHR_materials_specular":{
					"specularFactor":0
				}
			},
			"name":"MTL0",
			"pbrMetallicRoughness":{
				"baseColorFactor":[
					1,
					0,
					0,
					1
				],
				"metallicFactor":0
			}
		},
		{
			"doubleSided":true,
			"extensions":{
				"KHR_materials_specular":{
					"specularFactor":0
				}
			},
			"name":"MTL1",
			"pbrMetallicRoughness":{
				"metallicFactor":0
			}
		},
		{
			"doubleSided":true,
			"extensions":{
				"KHR_materials_specular":{
					"specularFactor":0
				}
			},
			"name":"MTL2",
			"pbrMetallicRoughness":{
				"baseColorFactor":[
					1,
					1,
					0,
					1
				],
				"metallicFactor":0
			}
		},
		{
			"doubleSided":true,
			"extensions":{
				"KHR_materials_specular":{
					"specularFactor":0
				}
			},
			"name":"MTL3",
			"pbrMetallicRoughness":{
				"baseColorFactor":[
					0.878000020980835,
					0.9490000009536743,
					1,
					1
				],
				"metallicFactor":0
			}
		},
		{
			"doubleSided":true,
			"extensions":{
				"KHR_materials_specular":{
					"specularFactor":0
				}
			},
			"name":"MTL4",
			"pbrMetallicRoughness":{
				"baseColorFactor":[
					1,
					0.75,
					0,
					1
				],
				"metallicFactor":0
			}
		},
		{
			"doubleSided":true,
			"extensions":{
				"KHR_materials_specular":{
					"specularFactor":0
				}
			},
			"name":"MTL5",
			"pbrMetallicRoughness":{
				"baseColorFactor":[
					0.5,
					0,
					0.5,
					1
				],
				"metallicFactor":0
			}
		}
	],
	"meshes":[
		{
			"name":"stirnradgetriebe_komplett",
			"primitives":[
				{
					"attributes":{
						"POSITION":0,
						"NORMAL":1,
						"TEXCOORD_0":2
					},
					"indices":3,
					"material":0
				},
				{
					"attributes":{
						"POSITION":4,
						"NORMAL":5,
						"TEXCOORD_0":6
					},
					"indices":7,
					"material":1
				},
				{
					"attributes":{
						"POSITION":8,
						"NORMAL":9,
						"TEXCOORD_0":10
					},
					"indices":11,
					"material":2
				},
				{
					"attributes":{
						"POSITION":12,
						"NORMAL":13,
						"TEXCOORD_0":14
					},
					"indices":15,
					"material":3
				},
				{
					"attributes":{
						"POSITION":16,
						"NORMAL":17,
						"TEXCOORD_0":18
					},
					"indices":19,
					"material":4
				},
				{
					"attributes":{
						"POSITION":20,
						"NORMAL":21,
						"TEXCOORD_0":22
					},
					"indices":23,
					"material":5
				},
				{
					"attributes":{
						"POSITION":24,
						"NORMAL":25,
						"TEXCOORD_0":26
					},
					"indices":27,
					"material":6
				}
			]
		}
	],
	"accessors":[
		{
			"bufferView":0,
			"componentType":5126,
			"count":8669,
			"max":[
				351.3999938964844,
				105,
				405
			],
			"min":[
				-351.3999938964844,
				-310,
				-405
			],
			"type":"VEC3"
		},
		{
			"bufferView":1,
			"componentType":5126,
			"count":8669,
			"type":"VEC3"
		},
		{
			"bufferView":2,
			"componentType":5126,
			"count":8669,
			"type":"VEC2"
		},
		{
			"bufferView":3,
			"componentType":5123,
			"count":22725,
			"type":"SCALAR"
		},
		{
			"bufferView":4,
			"componentType":5126,
			"count":1144,
			"max":[
				198.39999389648438,
				80.84323120117188,
				395
			],
			"min":[
				-198.39999389648438,
				-80.84323120117188,
				-395
			],
			"type":"VEC3"
		},
		{
			"bufferView":5,
			"componentType":5126,
			"count":1144,
			"type":"VEC3"
		},
		{
			"bufferView":6,
			"componentType":5126,
			"count":1144,
			"type":"VEC2"
		},
		{
			"bufferView":7,
			"componentType":5123,
			"count":3048,
			"type":"SCALAR"
		},
		{
			"bufferView":8,
			"componentType":5126,
			"count":1128,
			"max":[
				203.1999969482422,
				62.5,
				184.5
			],
			"min":[
				-203.1999969482422,
				-62.5,
				-263.5
			],
			"type":"VEC3"
		},
		{
			"bufferView":9,
			"componentType":5126,
			"count":1128,
			"type":"VEC3"
		},
		{
			"bufferView":10,
			"componentType":5126,
			"count":1128,
			"type":"VEC2"
		},
		{
			"bufferView":11,
			"componentType":5123,
			"count":3072,
			"type":"SCALAR"
		},
		{
			"bufferView":12,
			"componentType":5126,
			"count":16796,
			"max":[
				222,
				101.5,
				396.5
			],
			"min":[
				-222,
				-276.14129638671875,
				-396.5
			],
			"type":"VEC3"
		},
		{
			"bufferView":13,
			"componentType":5126,
			"count":16796,
			"type":"VEC3"
		},
		{
			"bufferView":14,
			"componentType":5126,
			"count":16796,
			"type":"VEC2"
		},
		{
			"bufferView":15,
			"componentType":5123,
			"count":48600,
			"type":"SCALAR"
		},
		{
			"bufferView":16,
			"componentType":5126,
			"count":6596,
			"max":[
				171,
				85,
				203.7152099609375
			],
			"min":[
				-171,
				-85,
				-281.8398132324219
			],
			"type":"VEC3"
		},
		{
			"bufferView":17,
			"componentType":5126,
			"count":6596,
			"type":"VEC3"
		},
		{
			"bufferView":18,
			"componentType":5126,
			"count":6596,
			"type":"VEC2"
		},
		{
			"bufferView":19,
			"componentType":5123,
			"count":17769,
			"type":"SCALAR"
		},
		{
			"bufferView":20,
			"componentType":5126,
			"count":18632,
			"max":[
				105,
				212.50257873535156,
				334.4932861328125
			],
			"min":[
				-105,
				-212.50257873535156,
				-321.48541259765625
			],
			"type":"VEC3"
		},
		{
			"bufferView":21,
			"componentType":5126,
			"count":18632,
			"type":"VEC3"
		},
		{
			"bufferView":22,
			"componentType":5126,
			"count":18632,
			"type":"VEC2"
		},
		{
			"bufferView":23,
			"componentType":5123,
			"count":47112,
			"type":"SCALAR"
		},
		{
			"bufferView":24,
			"componentType":5126,
			"count":864,
			"max":[
				174.85000610351562,
				60.512908935546875,
				182.61717224121094
			],
			"min":[
				-174.85000610351562,
				-60.911861419677734,
				-263.42059326171875
			],
			"type":"VEC3"
		},
		{
			"bufferView":25,
			"componentType":5126,
			"count":864,
			"type":"VEC3"
		},
		{
			"bufferView":26,
			"componentType":5126,
			"count":864,
			"type":"VEC2"
		},
		{
			"bufferView":27,
			"componentType":5123,
			"count":2256,
			"type":"SCALAR"
		}
	],
	"bufferViews":[
		{
			"buffer":0,
			"byteLength":104028,
			"byteOffset":0,
			"target":34962
		},
		{
			"buffer":0,
			"byteLength":104028,
			"byteOffset":104028,
			"target":34962
		},
		{
			"buffer":0,
			"byteLength":69352,
			"byteOffset":208056,
			"target":34962
		},
		{
			"buffer":0,
			"byteLength":45450,
			"byteOffset":277408,
			"target":34963
		},
		{
			"buffer":0,
			"byteLength":13728,
			"byteOffset":322860,
			"target":34962
		},
		{
			"buffer":0,
			"byteLength":13728,
			"byteOffset":336588,
			"target":34962
		},
		{
			"buffer":0,
			"byteLength":9152,
			"byteOffset":350316,
			"target":34962
		},
		{
			"buffer":0,
			"byteLength":6096,
			"byteOffset":359468,
			"target":34963
		},
		{
			"buffer":0,
			"byteLength":13536,
			"byteOffset":365564,
			"target":34962
		},
		{
			"buffer":0,
			"byteLength":13536,
			"byteOffset":379100,
			"target":34962
		},
		{
			"buffer":0,
			"byteLength":9024,
			"byteOffset":392636,
			"target":34962
		},
		{
			"buffer":0,
			"byteLength":6144,
			"byteOffset":401660,
			"target":34963
		},
		{
			"buffer":0,
			"byteLength":201552,
			"byteOffset":407804,
			"target":34962
		},
		{
			"buffer":0,
			"byteLength":201552,
			"byteOffset":609356,
			"target":34962
		},
		{
			"buffer":0,
			"byteLength":134368,
			"byteOffset":810908,
			"target":34962
		},
		{
			"buffer":0,
			"byteLength":97200,
			"byteOffset":945276,
			"target":34963
		},
		{
			"buffer":0,
			"byteLength":79152,
			"byteOffset":1042476,
			"target":34962
		},
		{
			"buffer":0,
			"byteLength":79152,
			"byteOffset":1121628,
			"target":34962
		},
		{
			"buffer":0,
			"byteLength":52768,
			"byteOffset":1200780,
			"target":34962
		},
		{
			"buffer":0,
			"byteLength":35538,
			"byteOffset":1253548,
			"target":34963
		},
		{
			"buffer":0,
			"byteLength":223584,
			"byteOffset":1289088,
			"target":34962
		},
		{
			"buffer":0,
			"byteLength":223584,
			"byteOffset":1512672,
			"target":34962
		},
		{
			"buffer":0,
			"byteLength":149056,
			"byteOffset":1736256,
			"target":34962
		},
		{
			"buffer":0,
			"byteLength":94224,
			"byteOffset":1885312,
			"target":34963
		},
		{
			"buffer":0,
			"byteLength":10368,
			"byteOffset":1979536,
			"target":34962
		},
		{
			"buffer":0,
			"byteLength":10368,
			"byteOffset":1989904,
			"target":34962
		},
		{
			"buffer":0,
			"byteLength":6912,
			"byteOffset":2000272,
			"target":34962
		},
		{
			"buffer":0,
			"byteLength":4512,
			"byteOffset":2007184,
			"target":34963
		}
	],
	"buffers":[
		{
			"byteLength":2011696,
			"uri":"untitled.bin"
		}
	]
}
